<?xml version="1.0" encoding="UTF-8" standalone="no"?>
<svg
   height="100"
   width="100"
   version="1.1"
   id="svg1"
   xmlns="http://www.w3.org/2000/svg"
   xmlns:svg="http://www.w3.org/2000/svg">
  <defs
     id="defs1" />
  <g
     id="layer1">
    <ellipse
       style="fill:#ff5555;fill-opacity:1;stroke-width:13.4745;paint-order:stroke fill markers"
       id="path5"
       cx="76.406586"
       cy="25.215364"
       rx="21.563095"
       ry="21.797817" />
  </g>
  <path
     d="m 51.312,3.5625 c -13.094,0 -23.718,10.63 -23.718,23.718 0,0.296 0.08,0.548 0.094,0.844 -0.296,-0.02 -0.58,-0.063 -0.876,-0.063 -7.044,0 -12.75,5.706 -12.75,12.75 0,0.088 0.032,0.164 0.032,0.25 -1.008,-0.302 -2.054,-0.5 -3.156,-0.5 -6.0435,0 -10.938,4.901 -10.938,10.938 0,6.043 4.8945,8.312 10.938,8.312 H 81.25 c 10.358,0 18.75,-8.39 18.75,-18.75 0,-10.358 -8.391,-18.75 -18.75,-18.75 -2.34,0 -4.568,0.502 -6.625,1.282 C 72.837,12.2725 63.13,3.5615 51.312,3.5615 Z m -4.593,58.656 -11.969,20.531 h 8.562 L 36.469,96.4375 57,75.9055 H 46.719 l 8.562,-13.687 z m -23.25,3.781 -9.031,24.812 1.937,0.719 9.313,-25.531 z m 10.343,0 -9.031,24.812 1.938,0.719 L 36,65.9995 Z m 30.969,0 -9.031,24.812 1.938,0.719 9.281,-25.531 z m 10.313,0 -9,24.812 1.937,0.719 9.281,-25.531 z"
     id="path1"
     style="fill:#709498;fill-opacity:1" />
  <path
     style="fill:#eed48e;fill-opacity:1;stroke-width:5.00032;paint-order:stroke fill markers"
     d="m 46.721735,62.217667 8.487926,-0.01017 -8.340443,13.588819 10.008531,0.16274 -20.301857,20.261173 6.631669,-13.507449 -8.421813,-0.08137 z"
     id="path4" />
</svg>
